<?xml version="1.0" standalone="no"?>
<!-- Generator: Adobe Fireworks 10, Export SVG Extension by Aaron Beall (http://fireworks.abeall.com) . Version: 0.6.1  -->
<!DOCTYPE svg PUBLIC "-//W3C//DTD SVG 1.1//EN" "http://www.w3.org/Graphics/SVG/1.1/DTD/svg11.dtd">
<svg id="mantle-logo.fw-Page%201" viewBox="0 0 118 158" style="background-color:#ffffff00" version="1.1"
	xmlns="http://www.w3.org/2000/svg" xmlns:xlink="http://www.w3.org/1999/xlink" xml:space="preserve"
	x="0px" y="0px" width="118px" height="158px"
>
	<g id="Layer%201">
		<g>
			<path d="M 36.5082 62.6908 C 36.5082 62.6908 18.3027 82.0207 58.5775 107.1083 C 58.5775 107.1083 -18.2875 86.5446 28.2888 34.3131 C 28.2888 34.3131 38.1521 46.8569 54.5907 38.0145 C 71.0294 29.1722 43.9056 29.5834 41.4398 23.2087 C 38.974 16.834 41.7137 9.0198 56.2346 1 C 56.2346 1 40.0698 21.1524 66.0978 26.9102 C 92.1258 32.668 67.7417 45.4174 67.7417 45.4174 C 67.7417 45.4174 36.7821 58.1669 56.2346 65.1585 C 75.6871 72.1501 87.4681 45.4174 87.4681 45.4174 C 87.4681 45.4174 120.6194 69.4769 66.0978 107.1083 C 66.0978 107.1083 79.7968 94.5645 77.6049 73.7952 C 77.6049 73.7952 74.5 85.7786 56.2738 92.332 C 47.4773 95.4949 34.3163 67.6262 36.5082 62.6908 Z" stroke="#6291dd" stroke-width="1" fill="#2b8bdb"/>
			<path d="M 47.5294 110.9935 C 47.5294 110.9935 50.6471 125.3278 77.6667 106.3445 C 77.6667 106.3445 85.3039 138.1125 117 148.9601 C 117 148.9601 48.8039 167.5559 1 148.1852 C 1 148.1852 50.4739 142.7614 47.5294 110.9935 Z" stroke="#6291dd" stroke-width="1" fill="#2b8bdb"/>
		</g>
	</g>
</svg>