<?xml version="1.0" standalone="no"?>
<!-- Generator: Adobe Fireworks 10, Export SVG Extension by Aaron Beall (http://fireworks.abeall.com) . Version: 0.6.1  -->
<!DOCTYPE svg PUBLIC "-//W3C//DTD SVG 1.1//EN" "http://www.w3.org/Graphics/SVG/1.1/DTD/svg11.dtd">
<svg id="rocks.fw-Page%201" viewBox="0 0 1000 500" style="background-color:#ffffff" version="1.1"
	xmlns="http://www.w3.org/2000/svg" xmlns:xlink="http://www.w3.org/1999/xlink" xml:space="preserve"
	x="0px" y="0px" width="1000px" height="500px"
>
	<g id="Layer%201">
		<path d="M 164.5568 359.1271 L 179.1987 347.0911 L 181.2904 354.4174 L 193.8406 365.9301 L 191.7489 375.3496 L 176.0611 387.9089 L 153.0524 383.7224 L 163.5109 372.2097 L 159.8504 364.8835 L 164.5568 359.1271 Z" fill="#fafafa"/>
		<path d="M 357.5164 334.5318 L 353.8559 350.7542 L 368.4978 357.0339 L 382.6168 346.0445 L 382.6168 321.9724 L 371.1124 323.0191 L 357.5164 334.5318 Z" fill="#fafafa"/>
		<path d="M 276.9858 399.4216 L 268.096 414.5974 L 281.1692 421.4004 L 307.8384 404.6547 L 344.4432 419.3072 L 346.5349 404.1313 L 342.8744 390.5254 L 322.4803 371.6864 L 315.1594 381.1059 L 300.5175 375.8729 L 258.6834 365.4068 L 260.7751 384.2458 L 276.9858 399.4216 Z" fill="#fafafa"/>
		<path d="M 176.584 436.5763 L 157.7587 445.9958 L 157.2358 461.1716 C 157.2358 461.1716 179.1987 466.928 180.2445 466.928 C 181.2904 466.928 198.024 433.4364 198.024 433.4364 L 239.8581 442.3326 L 264.9585 459.0784 L 239.3351 411.9809 L 260.7751 407.2712 L 258.1605 394.1886 L 248.2249 386.8623 L 220.5098 404.1313 L 204.2991 410.9343 L 190.1801 411.4576 L 176.584 436.5763 Z" fill="#fafafa"/>
		<path d="M 139.9792 423.4937 L 168.2172 410.9343 L 167.6943 396.2818 L 147.8231 390.0021 L 139.9792 405.7013 L 116.9705 405.178 L 121.1539 422.447 L 139.9792 423.4937 Z" fill="#fafafa"/>
		<path d="M 125.3373 441.286 L 115.4017 451.2288 L 130.5666 452.2754 L 138.4105 441.286 L 132.6583 430.8199 L 125.3373 441.286 Z" fill="#fafafa"/>
		<path d="M 191.7489 396.2818 L 193.3177 401.5148 L 208.4825 401.5148 L 219.464 387.9089 L 210.0513 372.7331 L 198.024 382.6758 L 191.7489 396.2818 Z" fill="#fafafa"/>
		<path d="M 247.702 348.661 L 277.5087 345.5212 L 274.3712 327.7288 C 274.3712 327.7288 256.5917 329.2987 255.5458 329.2987 C 254.5 329.2987 244.5644 338.7182 244.5644 338.7182 C 244.5644 338.7182 246.6561 349.1843 247.702 348.661 Z" fill="#fafafa"/>
		<path d="M 301.5633 357.5572 L 314.1135 353.8941 L 334.5076 359.1271 L 316.7281 368.0233 L 313.5906 377.4428 L 300.5175 369.5932 L 301.5633 357.5572 Z" fill="#fafafa"/>
		<path d="M 364.8373 377.4428 L 371.1124 396.2818 L 396.2129 404.6547 L 406.6714 385.2924 L 391.5065 373.2563 L 382.6168 381.1059 L 364.8373 377.4428 Z" fill="#fafafa"/>
		<path d="M 360.131 360.1737 L 339.7369 364.3602 L 335.0305 369.5932 L 342.8744 381.1059 L 355.4247 383.1992 L 355.4247 374.8263 L 369.5436 368.5466 L 384.7085 365.4068 L 360.131 360.1737 Z" fill="#fafafa"/>
		<path d="M 355.9476 390.0021 L 362.2227 388.9555 L 365.8832 395.7585 L 373.2041 408.8411 L 394.1212 408.8411 L 392.0294 418.2606 L 373.2041 429.7733 L 354.3788 439.7161 L 346.5349 433.4364 L 348.1037 419.3072 L 360.131 413.0276 L 356.4705 399.4216 L 347.5808 392.6187 L 355.9476 390.0021 Z" fill="#fafafa"/>
		<path d="M 116.101 268.0174 L 133.269 258.4368 L 131.6176 264.2679 L 136.4012 273.9476 L 130.2641 282.2394 L 110.4297 293.93 L 93.0585 289.7922 L 108.4388 279.2595 L 109.3494 272.8401 L 116.101 268.0174 Z" fill="#fafafa"/>
		<path d="M 41.4107 294.3427 L 77.3952 279.8493 L 86.2228 264.2276 L 72.6434 257.8418 L 54.974 274.0121 L 34.2411 273.3637 L 24.0137 293.0451 L 41.4107 294.3427 Z" fill="#fafafa"/>
		<path d="M 435.0653 339.0845 L 438.6066 357.0866 L 459.8596 365.8017 L 469 346.5488 L 456.863 335.487 L 449.3182 342.5249 L 435.0653 339.0845 Z" fill="#fafafa"/>
		<path d="M 411.3615 297.8148 L 416.7658 296.8307 L 419.1743 303.5393 L 424.327 317.1954 L 442.8926 317.2617 L 440.6647 327.7278 L 422.349 341.3576 L 402.8366 354 L 396.3125 345.901 L 400.2772 328.8306 L 412.1659 321.7464 L 410.647 307.2151 L 403.9232 300.3378 L 411.3615 297.8148 Z" fill="#fafafa"/>
		<path d="M 282.2151 436.053 L 258.6834 426.1102 L 273.8482 422.9703 L 290.0589 424.5403 L 296.334 422.447 L 330.3242 432.9131 L 323.5262 444.9492 L 307.8384 454.8919 C 307.8384 454.8919 297.3799 465.3581 296.334 465.3581 C 295.2882 465.3581 285.3526 459.6017 285.3526 459.6017 L 283.2609 451.2288 L 288.4901 444.4258 L 282.2151 436.053 Z" fill="#fafafa"/>
		<path d="M 218.941 458.5551 L 207.4367 463.7881 L 206.9137 473.2076 L 222.6015 480.0106 L 241.9498 485.7669 L 261.298 491 L 282.2151 485.7669 L 275.9399 470.0678 L 247.179 468.4979 L 244.5644 460.125 L 228.8766 453.8453 L 218.941 458.5551 Z" fill="#fafafa"/>
		<path d="M 66.7696 435.0063 L 53.1736 418.7839 L 49.5131 432.9131 L 34.3483 440.2394 L 23.8897 452.2754 L 24.4127 460.6483 L 64.6779 468.4979 L 63.6321 481.5805 L 101.8057 488.9068 L 137.8875 476.8708 L 130.5666 464.8347 C 130.5666 464.8347 113.833 458.5551 112.2642 458.5551 C 110.6954 458.5551 98.6681 467.4513 98.6681 467.4513 L 86.1179 454.3687 L 64.6779 445.4724 L 66.7696 435.0063 Z" fill="#fafafa"/>
		<path d="M 79.3199 418.2606 L 76.1823 436.053 L 96.0535 433.4364 L 99.714 420.3538 L 89.7784 414.5974 L 85.595 425.0636 L 79.3199 418.2606 Z" fill="#fafafa"/>
		<path d="M 470.8449 437.3792 L 480.2576 454.6483 L 492.8078 454.6483 L 508.4956 439.4724 L 493.3307 414.8771 L 478.6888 430.053 L 457.7718 426.9131 L 453.0655 441.0424 C 453.0655 441.0424 468.7532 436.3326 470.8449 437.3792 Z" fill="#fafafa"/>
		<path d="M 440.1386 452.2754 L 425.4967 460.6483 L 414.5153 471.6377 L 435.4323 481.5805 L 441.1845 471.1144 L 470.4683 480.0106 L 494 467.9746 C 494 467.9746 472.56 465.3581 470.4683 465.3581 C 468.3766 465.3581 447.9825 461.6949 447.9825 461.6949 L 440.1386 452.2754 Z" fill="#fafafa"/>
		<path d="M 341.3057 455.4153 L 327.7096 470.5911 L 341.8286 477.9174 L 377.3875 478.4407 L 392.0294 486.2903 L 404.0567 487.8602 L 404.0567 476.8708 L 375.8188 461.6949 L 354.3788 461.6949 L 341.3057 455.4153 Z" stroke="#ffffff00" stroke-width="1" fill="#fafafa"/>
		<path d="M 412.4236 452.2754 L 420.7904 442.8559 L 415.0382 430.2966 L 388.8919 435.0063 L 357.5164 444.4258 L 356.9934 454.8919 L 412.4236 452.2754 Z" stroke="#ffffff00" stroke-width="1" fill="#fafafa"/>
		<path d="M 320.3886 485.2437 L 317.2511 489.9534 L 297.3799 488.3835 L 296.857 477.9174 L 322.4803 477.9174 L 320.3886 485.2437 Z" stroke="#ffffff00" stroke-width="1" fill="#fafafa"/>
		<path d="M 423.9279 376.3962 L 440.1386 362.2669 L 456.3493 381.6292 L 430.203 404.6547 L 409.8089 417.7373 L 406.6714 398.375 L 427.0655 390.5254 L 423.9279 376.3962 Z" stroke="#ffffff00" stroke-width="1" fill="#fafafa"/>
		<path d="M 880.9858 415.4216 L 872.0961 430.5974 L 885.1692 437.4004 L 911.8384 420.6547 L 948.4432 435.3072 L 950.5349 420.1313 L 946.8744 406.5254 L 926.4803 387.6864 L 919.1594 397.1059 L 904.5175 391.8729 L 862.6833 381.4068 L 864.7751 400.2458 L 880.9858 415.4216 Z" fill="#fafafa"/>
		<path d="M 904.5633 364.5572 L 917.1135 360.8941 L 937.5076 366.1271 L 919.7281 375.0233 L 916.5906 384.4428 L 903.5175 376.5932 L 904.5633 364.5572 Z" fill="#fafafa"/>
		<path d="M 941.8373 297.4428 L 948.1124 316.2818 L 973.2129 324.6547 L 983.6714 305.2924 L 968.5066 293.2563 L 959.6168 301.1059 L 941.8373 297.4428 Z" fill="#fafafa"/>
		<path d="M 964.131 376.1737 L 943.7369 380.3602 L 939.0305 385.5932 L 946.8744 397.1059 L 959.4247 399.1992 L 959.4247 390.8263 L 973.5437 384.5466 L 988.7085 381.4068 L 964.131 376.1737 Z" fill="#fafafa"/>
		<path d="M 959.9476 406.0021 L 966.2227 404.9555 L 969.8832 411.7585 L 977.2041 424.8411 L 998.1211 424.8411 L 996.0294 434.2606 L 977.2041 445.7733 L 958.3788 455.7161 L 950.5349 449.4364 L 952.1037 435.3072 L 964.131 429.0276 L 960.4705 415.4216 L 951.5808 408.6187 L 959.9476 406.0021 Z" fill="#fafafa"/>
		<path d="M 886.2151 452.053 L 862.6833 442.1102 L 877.8483 438.9703 L 894.059 440.5403 L 900.334 438.447 L 934.3242 448.9131 L 927.5262 460.9492 L 911.8384 470.8919 C 911.8384 470.8919 901.3799 481.358 900.334 481.358 C 899.2882 481.358 889.3526 475.6017 889.3526 475.6017 L 887.2609 467.2288 L 892.4901 460.4258 L 886.2151 452.053 Z" fill="#fafafa"/>
		<path d="M 812.3062 477.8826 L 806.8253 489.1597 L 812.5071 496.5916 L 828.9847 491.7184 L 847.6058 483.723 L 865.8889 475.3334 L 878.6198 458.0564 L 863.6455 450.2254 L 840.4787 467.3756 L 833.0563 462.7324 L 816.9166 468 L 812.3062 477.8826 Z" fill="#fafafa"/>
		<path d="M 1044.1387 468.2754 L 1029.4967 476.6483 L 1018.5153 487.6377 L 1039.4323 497.5805 L 1045.1844 487.1144 L 1074.4683 496.0106 L 1098 483.9746 C 1098 483.9746 1076.5601 481.358 1074.4683 481.358 C 1072.3766 481.358 1051.9825 477.6949 1051.9825 477.6949 L 1044.1387 468.2754 Z" fill="#fafafa"/>
		<path d="M 929.3057 466.4153 L 915.7096 481.5911 L 929.8286 488.9174 L 965.3876 489.4407 L 980.0294 497.2903 L 992.0568 498.8602 L 992.0568 487.8707 L 963.8187 472.6949 L 942.3788 472.6949 L 929.3057 466.4153 Z" stroke="#ffffff00" stroke-width="1" fill="#fafafa"/>
		<path d="M 990.4236 355.2754 L 998.7904 345.8559 L 993.0382 333.2966 L 966.8918 338.0063 L 935.5164 347.4258 L 934.9934 357.8919 L 990.4236 355.2754 Z" stroke="#ffffff00" stroke-width="1" fill="#fafafa"/>
		<path d="M 884.3887 489.2437 L 881.2511 493.9534 L 861.3799 492.3835 L 860.8569 481.9174 L 886.4803 481.9174 L 884.3887 489.2437 Z" stroke="#ffffff00" stroke-width="1" fill="#fafafa"/>
		<path d="M 387.928 244.3962 L 404.1387 230.2669 L 420.3494 249.6292 L 394.203 272.6547 L 373.809 285.7373 L 370.6714 266.375 L 391.0654 258.5254 L 387.928 244.3962 Z" stroke="#ffffff00" stroke-width="1" fill="#fafafa"/>
		<path d="M 50.036 381.1059 L 33.8253 399.4216 L 41.6692 407.2712 L 63.6321 418.2606 L 64.155 424.0169 L 70.9531 424.0169 L 74.0906 407.2712 C 74.0906 407.2712 82.4574 409.8877 81.4116 409.8877 C 80.3657 409.8877 96.5764 407.2712 96.5764 407.2712 L 96.5764 395.2352 L 78.7969 383.1992 L 66.7696 388.9555 L 50.036 381.1059 Z" stroke="#ffffff00" stroke-width="1" fill="#fafafa"/>
		<path d="M 65.7238 300.5169 L 55.7882 324.589 L 88.2096 360.1737 L 108.0808 387.9089 L 128.9978 357.5572 L 162.4651 321.9724 L 180.2445 329.822 L 172.4007 300.5169 L 143.1168 303.1335 C 143.1168 303.1335 125.3373 331.9153 124.2915 332.4386 C 123.2456 332.9619 104.4203 321.4492 104.4203 321.4492 L 84.5491 313.0763 L 69.3843 317.2627 L 65.7238 300.5169 Z" stroke="#ffffff00" stroke-width="1" fill="#fafafa"/>
		<path d="M 44.2838 327.7288 L 63.1092 337.1483 L 70.4301 346.5678 L 77.7511 361.2203 L 65.7238 367.5 L 54.2194 353.3708 C 54.2194 353.3708 40.1004 364.3602 39.0546 365.4068 C 38.0087 366.4534 27.0273 363.8369 27.0273 363.8369 L 15 338.1949 L 23.3668 331.3919 L 39.5775 335.5784 L 44.2838 327.7288 Z" stroke="#ffffff00" stroke-width="1" fill="#fafafa"/>
		<path d="M 125.8603 394.7119 L 138.9334 382.6758 L 154.0983 361.7437 L 139.4563 357.0339 L 125.8603 380.0593 L 125.8603 394.7119 Z" stroke="#ffffff00" stroke-width="1" fill="#fafafa"/>
		<path d="M 205.345 306.7966 L 199.5928 324.0657 L 195.4094 342.9047 L 235.1517 352.3242 L 235.6747 338.1949 L 227.8308 332.9619 L 251.3624 327.7288 L 251.3624 314.6462 L 240.9039 294.7606 L 205.345 306.7966 Z" stroke="#ffffff00" stroke-width="1" fill="#fafafa"/>
		<path d="M 295.3701 289.6208 L 274.453 315.2627 L 295.893 334.625 L 314.1954 326.7754 L 343.4792 308.9831 L 361.2587 325.2055 L 383.7445 311.0763 L 392.1113 291.714 L 365.965 283.3411 L 327.7915 265.5487 L 295.3701 289.6208 Z" stroke="#ffffff00" stroke-width="1" fill="#fafafa"/>
		<path d="M 229.3996 266.5021 C 229.3996 266.5021 217.3723 273.3051 216.3264 273.3051 C 215.2805 273.3051 185.4738 261.2691 185.4738 261.2691 L 159.3275 269.1187 L 153.0524 256.036 L 182.8592 244.5233 L 210.5742 244 L 223.6474 253.9428 L 229.3996 266.5021 Z" stroke="#ffffff00" stroke-width="1" fill="#fafafa"/>
		<path d="M 258.6834 259.6992 L 228.8766 273.3051 L 222.6015 282.7246 L 223.6474 293.1907 L 242.9956 289.0042 L 252.9312 302.0869 L 269.6648 294.7606 L 292.1506 270.1653 L 309.9301 256.5593 L 283.2609 249.233 L 258.6834 259.6992 Z" stroke="#ffffff00" stroke-width="1" fill="#fafafa"/>
		<path d="M 198.5469 273.8284 L 178.1528 268.5953 L 162.988 280.1081 L 184.4279 288.4809 L 190.1801 302.6102 L 209.5284 296.3305 L 198.5469 273.8284 Z" stroke="#ffffff00" stroke-width="1" fill="#fafafa"/>
		<path d="M 623.5568 373.8729 L 638.1987 385.9089 L 640.2904 378.5826 L 652.8406 367.0699 L 650.7489 357.6504 L 635.0612 345.0911 L 612.0524 349.2776 L 622.5109 360.7903 L 618.8505 368.1165 L 623.5568 373.8729 Z" fill="#fafafa"/>
		<path d="M 786.5164 400.4682 L 782.8558 384.2458 L 797.4978 377.9661 L 811.6168 388.9555 L 811.6168 413.0276 L 800.1124 411.9809 L 786.5164 400.4682 Z" fill="#fafafa"/>
		<path d="M 735.9858 333.5784 L 727.0961 318.4026 L 740.1692 311.5996 L 766.8384 328.3453 L 803.4432 313.6928 L 805.5349 328.8687 L 801.8744 342.4746 L 781.4803 361.3136 L 774.1594 351.8941 L 759.5175 357.1271 L 717.6833 367.5932 L 719.7751 348.7542 L 735.9858 333.5784 Z" fill="#fafafa"/>
		<path d="M 635.584 296.4237 L 616.7587 287.0042 L 616.2358 271.8284 C 616.2358 271.8284 638.1987 266.072 639.2445 266.072 C 640.2904 266.072 657.024 299.5636 657.024 299.5636 L 698.858 290.6674 L 723.9585 273.9216 L 698.3351 321.0191 L 719.7751 325.7288 L 717.1605 338.8114 L 707.2249 346.1377 L 679.5098 328.8687 L 663.2991 322.0657 L 649.1801 321.5424 L 635.584 296.4237 Z" fill="#fafafa"/>
		<path d="M 598.9792 309.5063 L 627.2172 322.0657 L 626.6943 336.7182 L 606.8231 342.9979 L 598.9792 327.2987 L 575.9705 327.822 L 580.1539 310.553 L 598.9792 309.5063 Z" fill="#fafafa"/>
		<path d="M 584.3373 291.714 L 574.4017 281.7712 L 589.5666 280.7246 L 597.4105 291.714 L 591.6583 302.1801 L 584.3373 291.714 Z" fill="#fafafa"/>
		<path d="M 650.7489 336.7182 L 652.3177 331.4852 L 667.4825 331.4852 L 678.464 345.0911 L 669.0513 360.2669 L 657.024 350.3242 L 650.7489 336.7182 Z" fill="#fafafa"/>
		<path d="M 706.702 384.339 L 736.5087 387.4788 L 733.3712 405.2712 C 733.3712 405.2712 715.5917 403.7013 714.5458 403.7013 C 713.5 403.7013 703.5644 394.2818 703.5644 394.2818 C 703.5644 394.2818 705.6561 383.8157 706.702 384.339 Z" fill="#fafafa"/>
		<path d="M 760.5633 375.4428 L 773.1135 379.1059 L 793.5076 373.8729 L 775.7281 364.9767 L 772.5906 355.5572 L 759.5175 363.4068 L 760.5633 375.4428 Z" fill="#fafafa"/>
		<path d="M 823.8373 355.5572 L 830.1124 336.7182 L 855.2129 328.3453 L 865.6714 347.7076 L 850.5065 359.7437 L 841.6168 351.8941 L 823.8373 355.5572 Z" fill="#fafafa"/>
		<path d="M 819.131 372.8263 L 798.7369 368.6398 L 794.0305 363.4068 L 801.8744 351.8941 L 814.4247 349.8008 L 814.4247 358.1737 L 828.5436 364.4534 L 843.7085 367.5932 L 819.131 372.8263 Z" fill="#fafafa"/>
		<path d="M 814.9476 342.9979 L 821.2227 344.0445 L 824.8832 337.2415 L 832.2041 324.1589 L 853.1212 324.1589 L 851.0294 314.7394 L 832.2041 303.2267 L 813.3788 293.2839 L 805.5349 299.5636 L 807.1037 313.6928 L 819.131 319.9724 L 815.4705 333.5784 L 806.5808 340.3813 L 814.9476 342.9979 Z" fill="#fafafa"/>
		<path d="M 741.2151 296.947 L 717.6833 306.8898 L 732.8483 310.0297 L 749.059 308.4597 L 755.334 310.553 L 789.3242 300.0869 L 782.5262 288.0508 L 766.8384 278.1081 C 766.8384 278.1081 756.3799 267.6419 755.334 267.6419 C 754.2882 267.6419 744.3526 273.3983 744.3526 273.3983 L 742.2609 281.7712 L 747.4901 288.5742 L 741.2151 296.947 Z" fill="#fafafa"/>
		<path d="M 677.941 274.4449 L 666.4366 269.2119 L 665.9138 259.7924 L 681.6015 252.9894 L 700.9498 247.2331 L 720.298 242 L 741.2151 247.2331 L 734.9399 262.9322 L 706.179 264.5021 L 703.5644 272.875 L 687.8766 279.1547 L 677.941 274.4449 Z" fill="#fafafa"/>
		<path d="M 525.7697 297.9937 L 512.1736 314.2161 L 508.5131 300.0869 L 493.3483 292.7606 L 482.8897 280.7246 L 483.4127 272.3517 L 523.678 264.5021 L 522.6321 251.4195 L 560.8057 244.0932 L 596.8876 256.1292 L 589.5666 268.1653 C 589.5666 268.1653 572.8329 274.4449 571.2642 274.4449 C 569.6954 274.4449 557.6681 265.5487 557.6681 265.5487 L 545.1179 278.6313 L 523.678 287.5276 L 525.7697 297.9937 Z" fill="#fafafa"/>
		<path d="M 538.3198 314.7394 L 535.1823 296.947 L 555.0535 299.5636 L 558.714 312.6462 L 548.7784 318.4026 L 544.595 307.9364 L 538.3198 314.7394 Z" fill="#fafafa"/>
		<path d="M 900.845 306.6208 L 910.2576 289.3517 L 922.8079 289.3517 L 938.4956 304.5276 L 923.3307 329.1229 L 908.6888 313.947 L 887.7719 317.0869 L 883.0655 302.9576 C 883.0655 302.9576 898.7532 307.6674 900.845 306.6208 Z" fill="#fafafa"/>
		<path d="M 899.1386 280.7246 L 884.4967 272.3517 L 873.5153 261.3623 L 894.4323 251.4195 L 900.1844 261.8856 L 929.4683 252.9894 L 953 265.0254 C 953 265.0254 931.5601 267.6419 929.4683 267.6419 C 927.3766 267.6419 906.9825 271.3051 906.9825 271.3051 L 899.1386 280.7246 Z" fill="#fafafa"/>
		<path d="M 800.3057 277.5847 L 786.7096 262.4089 L 800.8286 255.0826 L 836.3876 254.5593 L 851.0294 246.7097 L 863.0568 245.1398 L 863.0568 256.1292 L 834.8187 271.3051 L 813.3788 271.3051 L 800.3057 277.5847 Z" stroke="#ffffff00" stroke-width="1" fill="#fafafa"/>
		<path d="M 871.4236 280.7246 L 879.7904 290.1441 L 874.0382 302.7034 L 847.8919 297.9937 L 816.5164 288.5742 L 815.9934 278.1081 L 871.4236 280.7246 Z" stroke="#ffffff00" stroke-width="1" fill="#fafafa"/>
		<path d="M 779.3887 247.7563 L 776.2511 243.0466 L 756.3799 244.6165 L 755.8569 255.0826 L 781.4803 255.0826 L 779.3887 247.7563 Z" stroke="#ffffff00" stroke-width="1" fill="#fafafa"/>
		<path d="M 879.9279 350.6038 L 896.1386 364.7331 L 912.3493 345.3708 L 886.203 322.3453 L 865.809 309.2627 L 862.6714 328.625 L 883.0655 336.4746 L 879.9279 350.6038 Z" stroke="#ffffff00" stroke-width="1" fill="#fafafa"/>
		<path d="M 509.036 351.8941 L 492.8253 333.5784 L 500.6692 325.7288 L 522.6321 314.7394 L 523.155 308.9831 L 529.9531 308.9831 L 533.0906 325.7288 C 533.0906 325.7288 541.4574 323.1123 540.4116 323.1123 C 539.3657 323.1123 555.5764 325.7288 555.5764 325.7288 L 555.5764 337.7648 L 537.7969 349.8008 L 525.7697 344.0445 L 509.036 351.8941 Z" stroke="#ffffff00" stroke-width="1" fill="#fafafa"/>
		<path d="M 523.7238 429.4831 L 513.7882 405.411 L 546.2096 369.8263 L 566.0808 342.0911 L 586.9978 372.4428 L 620.4651 408.0276 L 638.2445 400.178 L 630.4006 429.4831 L 601.1168 426.8665 C 601.1168 426.8665 583.3373 398.0847 582.2915 397.5614 C 581.2456 397.0381 562.4203 408.5508 562.4203 408.5508 L 542.5491 416.9237 L 527.3843 412.7373 L 523.7238 429.4831 Z" stroke="#ffffff00" stroke-width="1" fill="#fafafa"/>
		<path d="M 485.2838 413.2712 L 504.1091 403.8517 L 511.4301 394.4322 L 518.7511 379.7797 L 506.7238 373.5 L 495.2194 387.6292 C 495.2194 387.6292 481.1005 376.6398 480.0546 375.5932 C 479.0087 374.5466 468.0273 377.1631 468.0273 377.1631 L 456 402.8051 L 464.3668 409.6081 L 480.5775 405.4216 L 485.2838 413.2712 Z" stroke="#ffffff00" stroke-width="1" fill="#fafafa"/>
		<path d="M 554.2838 473.2712 L 573.1091 463.8517 L 580.4301 454.4322 L 587.7511 439.7797 L 575.7238 433.5 L 564.2194 447.6292 C 564.2194 447.6292 550.1005 436.6398 549.0546 435.5932 C 548.0087 434.5466 537.0273 437.1631 537.0273 437.1631 L 525 462.8051 L 533.3668 469.6081 L 549.5775 465.4216 L 554.2838 473.2712 Z" stroke="#ffffff00" stroke-width="1" fill="#fafafa"/>
		<path d="M 584.8602 338.2881 L 597.9334 350.3242 L 613.0983 371.2563 L 598.4563 375.9661 L 584.8602 352.9407 L 584.8602 338.2881 Z" stroke="#ffffff00" stroke-width="1" fill="#fafafa"/>
		<path d="M 664.345 426.2034 L 658.5928 408.9343 L 654.4094 390.0953 L 694.1517 380.6758 L 694.6747 394.8051 L 686.8308 400.0381 L 710.3624 405.2712 L 710.3624 418.3538 L 699.9039 438.2394 L 664.345 426.2034 Z" stroke="#ffffff00" stroke-width="1" fill="#fafafa"/>
		<path d="M 757.3701 445.3792 L 736.453 419.7373 L 757.893 400.375 L 776.1954 408.2246 L 805.4792 426.0169 L 823.2587 409.7945 L 845.7445 423.9237 L 854.1113 443.286 L 827.965 451.6589 L 789.7915 469.4513 L 757.3701 445.3792 Z" stroke="#ffffff00" stroke-width="1" fill="#fafafa"/>
		<path d="M 654.3995 466.4979 C 654.3995 466.4979 642.3723 459.6949 641.3264 459.6949 C 640.2805 459.6949 610.4738 471.7309 610.4738 471.7309 L 584.3275 463.8813 L 578.0524 476.964 L 607.8591 488.4767 L 635.5742 489 L 648.6473 479.0572 L 654.3995 466.4979 Z" stroke="#ffffff00" stroke-width="1" fill="#fafafa"/>
		<path d="M 704.6833 479.3008 L 674.8766 465.6949 L 668.6015 456.2754 L 669.6473 445.8093 L 688.9956 449.9958 L 698.9312 436.9131 L 715.6648 444.2394 L 738.1506 468.8347 L 755.9301 482.4407 L 729.2609 489.767 L 704.6833 479.3008 Z" stroke="#ffffff00" stroke-width="1" fill="#fafafa"/>
		<path d="M 652.5469 447.1716 L 632.1528 452.4047 L 616.988 440.8919 L 638.4279 432.5191 L 644.1801 418.3898 L 663.5284 424.6695 L 652.5469 447.1716 Z" stroke="#ffffff00" stroke-width="1" fill="#fafafa"/>
		<path d="M 323.5568 203.1271 L 338.1987 191.0911 L 340.2904 198.4174 L 352.8406 209.9301 L 350.7489 219.3496 L 335.0611 231.9089 L 312.0524 227.7224 L 322.5109 216.2097 L 318.8504 208.8835 L 323.5568 203.1271 Z" fill="#fafafa"/>
		<path d="M 435.9858 243.4216 L 427.096 258.5974 L 440.1692 265.4004 L 466.8384 248.6547 L 503.4432 263.3072 L 505.5349 248.1313 L 501.8744 234.5254 L 481.4803 215.6864 L 474.1594 225.1059 L 459.5175 219.8729 L 417.6834 209.4068 L 419.7751 228.2458 L 435.9858 243.4216 Z" fill="#fafafa"/>
		<path d="M 519.131 204.1737 L 498.7369 208.3602 L 494.0305 213.5932 L 501.8744 225.1059 L 514.4247 227.1992 L 514.4247 218.8263 L 528.5436 212.5466 L 543.7085 209.4068 L 519.131 204.1737 Z" fill="#fafafa"/>
		<path d="M 782.5568 217.8729 L 797.1987 229.9089 L 799.2904 222.5826 L 811.8406 211.0699 L 809.7489 201.6504 L 794.0612 189.0911 L 771.0524 193.2776 L 781.5109 204.7903 L 777.8505 212.1165 L 782.5568 217.8729 Z" fill="#fafafa"/>
		<path d="M 611.9792 227.5063 L 640.2172 240.0657 L 639.6943 254.7182 L 619.8231 260.9979 L 611.9792 245.2987 L 588.9705 245.822 L 593.1539 228.553 L 611.9792 227.5063 Z" fill="#fafafa"/>
		<path d="M 809.7489 180.7182 L 811.3177 175.4852 L 826.4825 175.4852 L 837.464 189.0911 L 828.0513 204.2669 L 816.024 194.3242 L 809.7489 180.7182 Z" fill="#fafafa"/>
	</g>
</svg>